<svg width="500" height="500" viewBox="0 0 500 500" fill="none" xmlns="http://www.w3.org/2000/svg">
<g clip-path="url(#clip0_1004_318)">
<path d="M183.217 334.784V359.522L70.8776 307.492V287.42L183.217 235.39V260.128L98.2627 297.217V297.683L183.217 334.784ZM249.942 207.912H62.0602C53.1962 207.912 46 215.085 46 223.925V370.987C46 379.827 53.1962 387 62.0602 387H197.785L249.942 207.912Z" fill="#0652E9"/>
<path d="M428.704 214.28L316.364 265.61V240.872L403.197 203.772V203.305L316.364 166.216V141.478L428.704 192.808V214.28ZM302.1 114L249.942 293.088H437.51C446.385 293.088 453.57 285.915 453.57 277.075V130.014C453.57 121.173 446.385 114 437.51 114H302.1Z" fill="#62E1E9"/>
</g>
<defs>
<clipPath id="clip0_1004_318">
<rect width="500" height="500" fill="white"/>
</clipPath>
</defs>
</svg>
